<svg width="59" height="67" viewBox="0 0 59 67" fill="none" xmlns="http://www.w3.org/2000/svg">
<g clip-path="url(#clip0_17_169)">
<mask id="mask0_17_169" style="mask-type:luminance" maskUnits="userSpaceOnUse" x="0" y="0" width="59" height="67">
<path d="M59 0H0V67H59V0Z" fill="white"/>
</mask>
<g mask="url(#mask0_17_169)">
<path fill-rule="evenodd" clip-rule="evenodd" d="M15.59 16.0923C6.90666 16.0923 0.116333 24.0536 0.116333 33.4724C0.116333 38.3714 0.85955 42.4057 3.63017 46.6503C6.27369 50.7008 10.6696 54.7878 17.4906 60.18L26.8816 66.9123L36.272 60.1811C43.0934 54.7885 47.4897 50.7008 50.1332 46.6503C52.9038 42.4057 53.647 38.3714 53.647 33.4724C53.647 24.0536 46.8564 16.0923 38.1733 16.0923C33.8163 16.0923 30.0448 17.3083 26.8816 20.6963C23.7185 17.3083 19.9469 16.0923 15.59 16.0923ZM15.59 21.7389C10.2216 21.7389 5.4694 26.78 5.4694 33.4724C5.4694 35.0225 5.55256 36.3849 5.75986 37.6414C6.10709 39.7461 6.80266 41.5537 8.03922 43.4483C10.1408 46.6681 13.8967 50.283 20.703 55.6633L26.8816 60.5582L33.0601 55.6633C39.8665 50.283 43.6226 46.6681 45.7243 43.4483C47.6989 40.4228 48.2937 37.6189 48.2937 33.4724C48.2937 26.78 43.5416 21.7389 38.1733 21.7389C34.866 21.7389 31.8335 22.4081 29.0317 26.3947C28.5269 27.1131 27.7293 27.5367 26.8816 27.5367C26.034 27.5367 25.2364 27.1131 24.7316 26.3947C21.9298 22.4081 18.8972 21.7389 15.59 21.7389Z" fill="#FFFFF0"/>
<path d="M28.6272 29.4659H24.787C24.2085 29.4659 23.7396 29.9371 23.7396 30.5183V54.7225C23.7396 55.3037 24.2085 55.7748 24.787 55.7748H28.6272C29.2056 55.7748 29.6745 55.3037 29.6745 54.7225V30.5183C29.6745 29.9371 29.2056 29.4659 28.6272 29.4659Z" fill="#FFFFF0"/>
<path d="M35.6094 39.6387V36.1309C35.6094 35.5497 35.1405 35.0785 34.562 35.0785H19.2011C18.6227 35.0785 18.1538 35.5497 18.1538 36.1309V39.6387C18.1538 40.2199 18.6227 40.6911 19.2011 40.6911H34.562C35.1405 40.6911 35.6094 40.2199 35.6094 39.6387Z" fill="#FFFFF0"/>
<path fill-rule="evenodd" clip-rule="evenodd" d="M46.0828 11.2096C46.0828 8.93676 47.7212 7.01569 49.8165 7.01569C50.8681 7.01569 51.7782 7.30912 52.5413 8.12666C53.3045 7.30912 54.2146 7.01569 55.2662 7.01569C57.3615 7.01569 58.9999 8.9368 58.9999 11.2096C58.9999 12.3918 58.8205 13.3653 58.1519 14.3895C57.5141 15.3669 56.4531 16.3532 54.8074 17.6545L52.5413 19.2788L50.2753 17.6543C48.6292 16.3531 47.5686 15.3669 46.9308 14.3895C46.2622 13.3653 46.0828 12.3918 46.0828 11.2096Z" fill="#FFFFF0"/>
<path fill-rule="evenodd" clip-rule="evenodd" d="M36.6567 3.06042C36.6567 1.40187 37.8524 0 39.3816 0C40.1486 0 40.8129 0.214122 41.3698 0.810714C41.9266 0.214122 42.591 0 43.358 0C44.8871 0 46.0828 1.40188 46.0828 3.06042C46.0828 3.92308 45.9519 4.63345 45.4641 5.38087C44.9984 6.09409 44.2244 6.81386 43.0232 7.76344L41.3698 8.94874L39.716 7.7633C38.5151 6.81376 37.7411 6.09409 37.2754 5.38087C36.7877 4.63345 36.6567 3.92308 36.6567 3.06042Z" fill="#FFFFF0"/>
</g>
</g>
<defs>
<clipPath id="clip0_17_169">
<rect width="59" height="67" fill="white"/>
</clipPath>
</defs>
</svg>
